<?xml version="1.0" encoding="UTF-8"?><svg xmlns="http://www.w3.org/2000/svg" xmlns:xlink="http://www.w3.org/1999/xlink" fill-opacity="1" color-rendering="auto" color-interpolation="auto" text-rendering="auto" stroke="black" stroke-linecap="square" width="723" stroke-miterlimit="10" shape-rendering="auto" stroke-opacity="1" fill="black" stroke-dasharray="none" font-weight="normal" stroke-width="1" height="1938" font-family="'Dialog'" font-style="normal" stroke-linejoin="miter" font-size="12px" stroke-dashoffset="0" image-rendering="auto">
  <!--Generated by ySVG 2.6-->
  <defs id="genericDefs"/>
  <g>
    <defs id="defs1">
      <clipPath clipPathUnits="userSpaceOnUse" id="clipPath1">
        <path d="M0 0 L723 0 L723 1938 L0 1938 L0 0 Z"/>
      </clipPath>
      <clipPath clipPathUnits="userSpaceOnUse" id="clipPath2">
        <path d="M-708 5 L15 5 L15 1943 L-708 1943 L-708 5 Z"/>
      </clipPath>
    </defs>
    <g fill="white" text-rendering="geometricPrecision" shape-rendering="geometricPrecision" transform="translate(708,-5)" stroke="white">
      <rect x="-708" width="723" height="1938" y="5" clip-path="url(#clipPath2)" stroke="none"/>
    </g>
    <g fill="rgb(204,255,204)" text-rendering="geometricPrecision" shape-rendering="geometricPrecision" transform="matrix(1,0,0,1,708,-5)" stroke="rgb(204,255,204)">
      <path d="M-468 1492 L-338 1492 L-338 1554 L-468 1554 Z" stroke="none" clip-path="url(#clipPath2)"/>
    </g>
    <g text-rendering="geometricPrecision" stroke-miterlimit="1.45" shape-rendering="geometricPrecision" transform="matrix(1,0,0,1,708,-5)" stroke-linecap="butt">
      <path fill="none" d="M-468 1492 L-338 1492 L-338 1554 L-468 1554 Z" clip-path="url(#clipPath2)"/>
      <text x="-439.6885" xml:space="preserve" y="1520.3633" clip-path="url(#clipPath2)" font-family="sans-serif" stroke="none">Invertebrados</text>
      <text x="-441.0273" xml:space="preserve" y="1535.0645" clip-path="url(#clipPath2)" font-family="sans-serif" stroke="none">não Artropoda</text>
    </g>
    <g fill="rgb(204,255,255)" text-rendering="geometricPrecision" shape-rendering="geometricPrecision" transform="matrix(1,0,0,1,708,-5)" stroke="rgb(204,255,255)">
      <path d="M-468 940 L-338 940 L-338 1002 L-468 1002 Z" stroke="none" clip-path="url(#clipPath2)"/>
    </g>
    <g text-rendering="geometricPrecision" stroke-miterlimit="1.45" shape-rendering="geometricPrecision" transform="matrix(1,0,0,1,708,-5)" stroke-linecap="butt">
      <path fill="none" d="M-468 940 L-338 940 L-338 1002 L-468 1002 Z" clip-path="url(#clipPath2)"/>
      <text x="-440.4941" font-size="18px" y="978.0708" clip-path="url(#clipPath2)" font-family="sans-serif" stroke="none" font-weight="bold" xml:space="preserve">Zoologia</text>
    </g>
    <g fill="rgb(204,255,204)" text-rendering="geometricPrecision" shape-rendering="geometricPrecision" transform="matrix(1,0,0,1,708,-5)" stroke="rgb(204,255,204)">
      <path d="M-468 112 L-338 112 L-338 174 L-468 174 Z" stroke="none" clip-path="url(#clipPath2)"/>
    </g>
    <g text-rendering="geometricPrecision" stroke-miterlimit="1.45" shape-rendering="geometricPrecision" transform="matrix(1,0,0,1,708,-5)" stroke-linecap="butt">
      <path fill="none" d="M-468 112 L-338 112 L-338 174 L-468 174 Z" clip-path="url(#clipPath2)"/>
      <text x="-437.0225" xml:space="preserve" y="147.7139" clip-path="url(#clipPath2)" font-family="sans-serif" stroke="none">Herpetologia</text>
    </g>
    <g fill="rgb(204,255,204)" text-rendering="geometricPrecision" shape-rendering="geometricPrecision" transform="matrix(1,0,0,1,708,-5)" stroke="rgb(204,255,204)">
      <path d="M-291 671.75 L-161 671.75 L-161 733.75 L-291 733.75 Z" stroke="none" clip-path="url(#clipPath2)"/>
    </g>
    <g text-rendering="geometricPrecision" stroke-miterlimit="1.45" shape-rendering="geometricPrecision" transform="matrix(1,0,0,1,708,-5)" stroke-linecap="butt">
      <path fill="none" d="M-291 671.75 L-161 671.75 L-161 733.75 L-291 733.75 Z" clip-path="url(#clipPath2)"/>
      <text x="-257.6875" xml:space="preserve" y="707.4639" clip-path="url(#clipPath2)" font-family="sans-serif" stroke="none">Aracnologia</text>
    </g>
    <g fill="rgb(204,255,204)" text-rendering="geometricPrecision" shape-rendering="geometricPrecision" transform="matrix(1,0,0,1,708,-5)" stroke="rgb(204,255,204)">
      <path d="M-468 1032 L-338 1032 L-338 1094 L-468 1094 Z" stroke="none" clip-path="url(#clipPath2)"/>
    </g>
    <g text-rendering="geometricPrecision" stroke-miterlimit="1.45" shape-rendering="geometricPrecision" transform="matrix(1,0,0,1,708,-5)" stroke-linecap="butt">
      <path fill="none" d="M-468 1032 L-338 1032 L-338 1094 L-468 1094 Z" clip-path="url(#clipPath2)"/>
      <text x="-433.6826" xml:space="preserve" y="1067.7139" clip-path="url(#clipPath2)" font-family="sans-serif" stroke="none">Crustaceae</text>
    </g>
    <g fill="rgb(204,255,204)" text-rendering="geometricPrecision" shape-rendering="geometricPrecision" transform="matrix(1,0,0,1,708,-5)" stroke="rgb(204,255,204)">
      <path d="M-468 388 L-338 388 L-338 450 L-468 450 Z" stroke="none" clip-path="url(#clipPath2)"/>
    </g>
    <g text-rendering="geometricPrecision" stroke-miterlimit="1.45" shape-rendering="geometricPrecision" transform="matrix(1,0,0,1,708,-5)" stroke-linecap="butt">
      <path fill="none" d="M-468 388 L-338 388 L-338 450 L-468 450 Z" clip-path="url(#clipPath2)"/>
      <text x="-436.3545" xml:space="preserve" y="423.7139" clip-path="url(#clipPath2)" font-family="sans-serif" stroke="none">Entomologia</text>
    </g>
    <g fill="rgb(204,255,204)" text-rendering="geometricPrecision" shape-rendering="geometricPrecision" transform="matrix(1,0,0,1,708,-5)" stroke="rgb(204,255,204)">
      <path d="M-468 1216 L-338 1216 L-338 1278 L-468 1278 Z" stroke="none" clip-path="url(#clipPath2)"/>
    </g>
    <g text-rendering="geometricPrecision" stroke-miterlimit="1.45" shape-rendering="geometricPrecision" transform="matrix(1,0,0,1,708,-5)" stroke-linecap="butt">
      <path fill="none" d="M-468 1216 L-338 1216 L-338 1278 L-468 1278 Z" clip-path="url(#clipPath2)"/>
      <text x="-431.0137" xml:space="preserve" y="1251.7139" clip-path="url(#clipPath2)" font-family="sans-serif" stroke="none">Myriapoda</text>
    </g>
    <g fill="rgb(204,255,204)" text-rendering="geometricPrecision" shape-rendering="geometricPrecision" transform="matrix(1,0,0,1,708,-5)" stroke="rgb(204,255,204)">
      <path d="M-468 848 L-338 848 L-338 910 L-468 910 Z" stroke="none" clip-path="url(#clipPath2)"/>
    </g>
    <g text-rendering="geometricPrecision" stroke-miterlimit="1.45" shape-rendering="geometricPrecision" transform="matrix(1,0,0,1,708,-5)" stroke-linecap="butt">
      <path fill="none" d="M-468 848 L-338 848 L-338 910 L-468 910 Z" clip-path="url(#clipPath2)"/>
      <text x="-426.6807" xml:space="preserve" y="883.7139" clip-path="url(#clipPath2)" font-family="sans-serif" stroke="none">Ictiologia</text>
    </g>
    <g fill="rgb(204,255,204)" text-rendering="geometricPrecision" shape-rendering="geometricPrecision" transform="matrix(1,0,0,1,708,-5)" stroke="rgb(204,255,204)">
      <path d="M-693 934.8333 L-563 934.8333 L-563 996.8333 L-693 996.8333 Z" stroke="none" clip-path="url(#clipPath2)"/>
    </g>
    <g text-rendering="geometricPrecision" stroke-miterlimit="1.45" shape-rendering="geometricPrecision" transform="matrix(1,0,0,1,708,-5)" stroke-linecap="butt">
      <path fill="none" d="M-693 934.8333 L-563 934.8333 L-563 996.8333 L-693 996.8333 Z" clip-path="url(#clipPath2)"/>
      <text x="-666.6895" xml:space="preserve" y="970.5472" clip-path="url(#clipPath2)" font-family="sans-serif" stroke="none">Mastozoologia</text>
    </g>
    <g fill="rgb(255,255,153)" text-rendering="geometricPrecision" shape-rendering="geometricPrecision" transform="matrix(1,0,0,1,708,-5)" stroke="rgb(255,255,153)">
      <path d="M-468 1584 L-338 1584 L-338 1646 L-468 1646 Z" stroke="none" clip-path="url(#clipPath2)"/>
    </g>
    <g text-rendering="geometricPrecision" stroke-miterlimit="1.45" shape-rendering="geometricPrecision" transform="matrix(1,0,0,1,708,-5)" stroke-linecap="butt">
      <path fill="none" d="M-468 1584 L-338 1584 L-338 1646 L-468 1646 Z" clip-path="url(#clipPath2)"/>
      <text x="-429.3438" xml:space="preserve" y="1619.7139" clip-path="url(#clipPath2)" font-family="sans-serif" stroke="none">Nemertea</text>
    </g>
    <g fill="rgb(255,255,153)" text-rendering="geometricPrecision" shape-rendering="geometricPrecision" transform="matrix(1,0,0,1,708,-5)" stroke="rgb(255,255,153)">
      <path d="M-468 1400 L-338 1400 L-338 1462 L-468 1462 Z" stroke="none" clip-path="url(#clipPath2)"/>
    </g>
    <g text-rendering="geometricPrecision" stroke-miterlimit="1.45" shape-rendering="geometricPrecision" transform="matrix(1,0,0,1,708,-5)" stroke-linecap="butt">
      <path fill="none" d="M-468 1400 L-338 1400 L-338 1462 L-468 1462 Z" clip-path="url(#clipPath2)"/>
      <text x="-426.6748" xml:space="preserve" y="1435.7139" clip-path="url(#clipPath2)" font-family="sans-serif" stroke="none">Mollusca</text>
    </g>
    <g fill="rgb(255,255,153)" text-rendering="geometricPrecision" shape-rendering="geometricPrecision" transform="matrix(1,0,0,1,708,-5)" stroke="rgb(255,255,153)">
      <path d="M-693 1313.1666 L-563 1313.1666 L-563 1375.1666 L-693 1375.1666 Z" stroke="none" clip-path="url(#clipPath2)"/>
    </g>
    <g text-rendering="geometricPrecision" stroke-miterlimit="1.45" shape-rendering="geometricPrecision" transform="matrix(1,0,0,1,708,-5)" stroke-linecap="butt">
      <path fill="none" d="M-693 1313.1666 L-563 1313.1666 L-563 1375.1666 L-693 1375.1666 Z" clip-path="url(#clipPath2)"/>
      <text x="-660.6865" xml:space="preserve" y="1348.8805" clip-path="url(#clipPath2)" font-family="sans-serif" stroke="none">Onycophora</text>
    </g>
    <g fill="rgb(255,255,153)" text-rendering="geometricPrecision" shape-rendering="geometricPrecision" transform="matrix(1,0,0,1,708,-5)" stroke="rgb(255,255,153)">
      <path d="M-291 1308 L-161 1308 L-161 1370 L-291 1370 Z" stroke="none" clip-path="url(#clipPath2)"/>
    </g>
    <g text-rendering="geometricPrecision" stroke-miterlimit="1.45" shape-rendering="geometricPrecision" transform="matrix(1,0,0,1,708,-5)" stroke-linecap="butt">
      <path fill="none" d="M-291 1308 L-161 1308 L-161 1370 L-291 1370 Z" clip-path="url(#clipPath2)"/>
      <text x="-268.3545" xml:space="preserve" y="1343.7139" clip-path="url(#clipPath2)" font-family="sans-serif" stroke="none">Platyhelminthes</text>
    </g>
    <g fill="rgb(255,255,153)" text-rendering="geometricPrecision" shape-rendering="geometricPrecision" transform="matrix(1,0,0,1,708,-5)" stroke="rgb(255,255,153)">
      <path d="M-693 1681.1666 L-563 1681.1666 L-563 1743.1666 L-693 1743.1666 Z" stroke="none" clip-path="url(#clipPath2)"/>
    </g>
    <g text-rendering="geometricPrecision" stroke-miterlimit="1.45" shape-rendering="geometricPrecision" transform="matrix(1,0,0,1,708,-5)" stroke-linecap="butt">
      <path fill="none" d="M-693 1681.1666 L-563 1681.1666 L-563 1743.1666 L-693 1743.1666 Z" clip-path="url(#clipPath2)"/>
      <text x="-649.0088" xml:space="preserve" y="1716.8805" clip-path="url(#clipPath2)" font-family="sans-serif" stroke="none">Porifera</text>
    </g>
    <g fill="rgb(255,255,153)" text-rendering="geometricPrecision" shape-rendering="geometricPrecision" transform="matrix(1,0,0,1,708,-5)" stroke="rgb(255,255,153)">
      <path d="M-291 1676 L-161 1676 L-161 1738 L-291 1738 Z" stroke="none" clip-path="url(#clipPath2)"/>
    </g>
    <g text-rendering="geometricPrecision" stroke-miterlimit="1.45" shape-rendering="geometricPrecision" transform="matrix(1,0,0,1,708,-5)" stroke-linecap="butt">
      <path fill="none" d="M-291 1676 L-161 1676 L-161 1738 L-291 1738 Z" clip-path="url(#clipPath2)"/>
      <text x="-247.0088" xml:space="preserve" y="1711.7139" clip-path="url(#clipPath2)" font-family="sans-serif" stroke="none">Rotifera</text>
    </g>
    <g fill="rgb(255,255,153)" text-rendering="geometricPrecision" shape-rendering="geometricPrecision" transform="matrix(1,0,0,1,708,-5)" stroke="rgb(255,255,153)">
      <path d="M-693 1589.1666 L-563 1589.1666 L-563 1651.1666 L-693 1651.1666 Z" stroke="none" clip-path="url(#clipPath2)"/>
    </g>
    <g text-rendering="geometricPrecision" stroke-miterlimit="1.45" shape-rendering="geometricPrecision" transform="matrix(1,0,0,1,708,-5)" stroke-linecap="butt">
      <path fill="none" d="M-693 1589.1666 L-563 1589.1666 L-563 1651.1666 L-693 1651.1666 Z" clip-path="url(#clipPath2)"/>
      <text x="-657.0156" xml:space="preserve" y="1624.8805" clip-path="url(#clipPath2)" font-family="sans-serif" stroke="none">Tardigrada</text>
    </g>
    <g fill="rgb(255,255,153)" text-rendering="geometricPrecision" shape-rendering="geometricPrecision" transform="matrix(1,0,0,1,708,-5)" stroke="rgb(255,255,153)">
      <path d="M-291 1584 L-161 1584 L-161 1646 L-291 1646 Z" stroke="none" clip-path="url(#clipPath2)"/>
    </g>
    <g text-rendering="geometricPrecision" stroke-miterlimit="1.45" shape-rendering="geometricPrecision" transform="matrix(1,0,0,1,708,-5)" stroke-linecap="butt">
      <path fill="none" d="M-291 1584 L-161 1584 L-161 1646 L-291 1646 Z" clip-path="url(#clipPath2)"/>
      <text x="-269.0342" xml:space="preserve" y="1619.7139" clip-path="url(#clipPath2)" font-family="sans-serif" stroke="none">Acanthocephala</text>
    </g>
    <g fill="rgb(255,255,153)" text-rendering="geometricPrecision" shape-rendering="geometricPrecision" transform="matrix(1,0,0,1,708,-5)" stroke="rgb(255,255,153)">
      <path d="M-693 1497.1666 L-563 1497.1666 L-563 1559.1666 L-693 1559.1666 Z" stroke="none" clip-path="url(#clipPath2)"/>
    </g>
    <g text-rendering="geometricPrecision" stroke-miterlimit="1.45" shape-rendering="geometricPrecision" transform="matrix(1,0,0,1,708,-5)" stroke-linecap="butt">
      <path fill="none" d="M-693 1497.1666 L-563 1497.1666 L-563 1559.1666 L-693 1559.1666 Z" clip-path="url(#clipPath2)"/>
      <text x="-651.3525" xml:space="preserve" y="1532.8805" clip-path="url(#clipPath2)" font-family="sans-serif" stroke="none">Annelida</text>
    </g>
    <g fill="rgb(255,255,153)" text-rendering="geometricPrecision" shape-rendering="geometricPrecision" transform="matrix(1,0,0,1,708,-5)" stroke="rgb(255,255,153)">
      <path d="M-291 1492 L-161 1492 L-161 1554 L-291 1554 Z" stroke="none" clip-path="url(#clipPath2)"/>
    </g>
    <g text-rendering="geometricPrecision" stroke-miterlimit="1.45" shape-rendering="geometricPrecision" transform="matrix(1,0,0,1,708,-5)" stroke-linecap="butt">
      <path fill="none" d="M-291 1492 L-161 1492 L-161 1554 L-291 1554 Z" clip-path="url(#clipPath2)"/>
      <text x="-248.3447" xml:space="preserve" y="1527.7139" clip-path="url(#clipPath2)" font-family="sans-serif" stroke="none">Cnidaria</text>
    </g>
    <g fill="rgb(255,255,153)" text-rendering="geometricPrecision" shape-rendering="geometricPrecision" transform="matrix(1,0,0,1,708,-5)" stroke="rgb(255,255,153)">
      <path d="M-693 1405.1666 L-563 1405.1666 L-563 1467.1666 L-693 1467.1666 Z" stroke="none" clip-path="url(#clipPath2)"/>
    </g>
    <g text-rendering="geometricPrecision" stroke-miterlimit="1.45" shape-rendering="geometricPrecision" transform="matrix(1,0,0,1,708,-5)" stroke-linecap="butt">
      <path fill="none" d="M-693 1405.1666 L-563 1405.1666 L-563 1467.1666 L-693 1467.1666 Z" clip-path="url(#clipPath2)"/>
      <text x="-668.3564" xml:space="preserve" y="1440.8805" clip-path="url(#clipPath2)" font-family="sans-serif" stroke="none">Echinodermata</text>
    </g>
    <g fill="rgb(255,255,153)" text-rendering="geometricPrecision" shape-rendering="geometricPrecision" transform="matrix(1,0,0,1,708,-5)" stroke="rgb(255,255,153)">
      <path d="M-291 1400 L-161 1400 L-161 1462 L-291 1462 Z" stroke="none" clip-path="url(#clipPath2)"/>
    </g>
    <g text-rendering="geometricPrecision" stroke-miterlimit="1.45" shape-rendering="geometricPrecision" transform="matrix(1,0,0,1,708,-5)" stroke-linecap="butt">
      <path fill="none" d="M-291 1400 L-161 1400 L-161 1462 L-291 1462 Z" clip-path="url(#clipPath2)"/>
      <text x="-253.6826" xml:space="preserve" y="1435.7139" clip-path="url(#clipPath2)" font-family="sans-serif" stroke="none">Nematoda</text>
    </g>
    <g fill="rgb(255,255,153)" text-rendering="geometricPrecision" shape-rendering="geometricPrecision" transform="matrix(1,0,0,1,708,-5)" stroke="rgb(255,255,153)">
      <path d="M-468 204 L-338 204 L-338 266 L-468 266 Z" stroke="none" clip-path="url(#clipPath2)"/>
    </g>
    <g text-rendering="geometricPrecision" stroke-miterlimit="1.45" shape-rendering="geometricPrecision" transform="matrix(1,0,0,1,708,-5)" stroke-linecap="butt">
      <path fill="none" d="M-468 204 L-338 204 L-338 266 L-468 266 Z" clip-path="url(#clipPath2)"/>
      <text x="-428.0137" xml:space="preserve" y="239.7139" clip-path="url(#clipPath2)" font-family="sans-serif" stroke="none">Amphibia</text>
    </g>
    <g fill="rgb(255,255,153)" text-rendering="geometricPrecision" shape-rendering="geometricPrecision" transform="matrix(1,0,0,1,708,-5)" stroke="rgb(255,255,153)">
      <path d="M-468 20 L-338 20 L-338 82 L-468 82 Z" stroke="none" clip-path="url(#clipPath2)"/>
    </g>
    <g text-rendering="geometricPrecision" stroke-miterlimit="1.45" shape-rendering="geometricPrecision" transform="matrix(1,0,0,1,708,-5)" stroke-linecap="butt">
      <path fill="none" d="M-468 20 L-338 20 L-338 82 L-468 82 Z" clip-path="url(#clipPath2)"/>
      <text x="-426.6836" xml:space="preserve" y="55.7139" clip-path="url(#clipPath2)" font-family="sans-serif" stroke="none">Chelonia</text>
    </g>
    <g fill="rgb(255,255,153)" text-rendering="geometricPrecision" shape-rendering="geometricPrecision" transform="matrix(1,0,0,1,708,-5)" stroke="rgb(255,255,153)">
      <path d="M-693 91.3333 L-563 91.3333 L-563 153.3333 L-693 153.3333 Z" stroke="none" clip-path="url(#clipPath2)"/>
    </g>
    <g text-rendering="geometricPrecision" stroke-miterlimit="1.45" shape-rendering="geometricPrecision" transform="matrix(1,0,0,1,708,-5)" stroke-linecap="butt">
      <path fill="none" d="M-693 91.3333 L-563 91.3333 L-563 153.3333 L-693 153.3333 Z" clip-path="url(#clipPath2)"/>
      <text x="-656.3447" xml:space="preserve" y="127.0472" clip-path="url(#clipPath2)" font-family="sans-serif" stroke="none">Crocodylia</text>
    </g>
    <g fill="rgb(255,255,153)" text-rendering="geometricPrecision" shape-rendering="geometricPrecision" transform="matrix(1,0,0,1,708,-5)" stroke="rgb(255,255,153)">
      <path d="M-291 112 L-161 112 L-161 174 L-291 174 Z" stroke="none" clip-path="url(#clipPath2)"/>
    </g>
    <g text-rendering="geometricPrecision" stroke-miterlimit="1.45" shape-rendering="geometricPrecision" transform="matrix(1,0,0,1,708,-5)" stroke-linecap="butt">
      <path fill="none" d="M-291 112 L-161 112 L-161 174 L-291 174 Z" clip-path="url(#clipPath2)"/>
      <text x="-250.0117" xml:space="preserve" y="147.7139" clip-path="url(#clipPath2)" font-family="sans-serif" stroke="none">Lacertilia</text>
    </g>
    <g fill="rgb(255,255,153)" text-rendering="geometricPrecision" shape-rendering="geometricPrecision" transform="matrix(1,0,0,1,708,-5)" stroke="rgb(255,255,153)">
      <path d="M-693 183.3333 L-563 183.3333 L-563 245.3333 L-693 245.3333 Z" stroke="none" clip-path="url(#clipPath2)"/>
    </g>
    <g text-rendering="geometricPrecision" stroke-miterlimit="1.45" shape-rendering="geometricPrecision" transform="matrix(1,0,0,1,708,-5)" stroke-linecap="butt">
      <path fill="none" d="M-693 183.3333 L-563 183.3333 L-563 245.3333 L-693 245.3333 Z" clip-path="url(#clipPath2)"/>
      <text x="-648.6807" xml:space="preserve" y="219.0472" clip-path="url(#clipPath2)" font-family="sans-serif" stroke="none">Ophidia</text>
    </g>
    <g fill="rgb(255,255,153)" text-rendering="geometricPrecision" shape-rendering="geometricPrecision" transform="matrix(1,0,0,1,708,-5)" stroke="rgb(255,255,153)">
      <path d="M-291 763.75 L-161 763.75 L-161 825.75 L-291 825.75 Z" stroke="none" clip-path="url(#clipPath2)"/>
    </g>
    <g text-rendering="geometricPrecision" stroke-miterlimit="1.45" shape-rendering="geometricPrecision" transform="matrix(1,0,0,1,708,-5)" stroke-linecap="butt">
      <path fill="none" d="M-291 763.75 L-161 763.75 L-161 825.75 L-291 825.75 Z" clip-path="url(#clipPath2)"/>
      <text x="-239.6699" xml:space="preserve" y="799.4639" clip-path="url(#clipPath2)" font-family="sans-serif" stroke="none">Acari</text>
    </g>
    <g fill="rgb(255,255,153)" text-rendering="geometricPrecision" shape-rendering="geometricPrecision" transform="matrix(1,0,0,1,708,-5)" stroke="rgb(255,255,153)">
      <path d="M-291 579.75 L-161 579.75 L-161 641.75 L-291 641.75 Z" stroke="none" clip-path="url(#clipPath2)"/>
    </g>
    <g text-rendering="geometricPrecision" stroke-miterlimit="1.45" shape-rendering="geometricPrecision" transform="matrix(1,0,0,1,708,-5)" stroke-linecap="butt">
      <path fill="none" d="M-291 579.75 L-161 579.75 L-161 641.75 L-291 641.75 Z" clip-path="url(#clipPath2)"/>
      <text x="-253.6768" xml:space="preserve" y="615.4639" clip-path="url(#clipPath2)" font-family="sans-serif" stroke="none">Amblypygi</text>
    </g>
    <g fill="rgb(255,255,153)" text-rendering="geometricPrecision" shape-rendering="geometricPrecision" transform="matrix(1,0,0,1,708,-5)" stroke="rgb(255,255,153)">
      <path d="M-468 572 L-338 572 L-338 634 L-468 634 Z" stroke="none" clip-path="url(#clipPath2)"/>
    </g>
    <g text-rendering="geometricPrecision" stroke-miterlimit="1.45" shape-rendering="geometricPrecision" transform="matrix(1,0,0,1,708,-5)" stroke-linecap="butt">
      <path fill="none" d="M-468 572 L-338 572 L-338 634 L-468 634 Z" clip-path="url(#clipPath2)"/>
      <text x="-422.3477" xml:space="preserve" y="607.7139" clip-path="url(#clipPath2)" font-family="sans-serif" stroke="none">Aranae</text>
    </g>
    <g fill="rgb(255,255,153)" text-rendering="geometricPrecision" shape-rendering="geometricPrecision" transform="matrix(1,0,0,1,708,-5)" stroke="rgb(255,255,153)">
      <path d="M-130 579.75 L0 579.75 L0 641.75 L-130 641.75 Z" stroke="none" clip-path="url(#clipPath2)"/>
    </g>
    <g text-rendering="geometricPrecision" stroke-miterlimit="1.45" shape-rendering="geometricPrecision" transform="matrix(1,0,0,1,708,-5)" stroke-linecap="butt">
      <path fill="none" d="M-130 579.75 L0 579.75 L0 641.75 L-130 641.75 Z" clip-path="url(#clipPath2)"/>
      <text x="-90.0137" xml:space="preserve" y="615.4639" clip-path="url(#clipPath2)" font-family="sans-serif" stroke="none">Opiliones</text>
    </g>
    <g fill="rgb(255,255,153)" text-rendering="geometricPrecision" shape-rendering="geometricPrecision" transform="matrix(1,0,0,1,708,-5)" stroke="rgb(255,255,153)">
      <path d="M-468 756 L-338 756 L-338 818 L-468 818 Z" stroke="none" clip-path="url(#clipPath2)"/>
    </g>
    <g text-rendering="geometricPrecision" stroke-miterlimit="1.45" shape-rendering="geometricPrecision" transform="matrix(1,0,0,1,708,-5)" stroke-linecap="butt">
      <path fill="none" d="M-468 756 L-338 756 L-338 818 L-468 818 Z" clip-path="url(#clipPath2)"/>
      <text x="-425.6758" xml:space="preserve" y="791.7139" clip-path="url(#clipPath2)" font-family="sans-serif" stroke="none">Ricinulei</text>
    </g>
    <g fill="rgb(255,255,153)" text-rendering="geometricPrecision" shape-rendering="geometricPrecision" transform="matrix(1,0,0,1,708,-5)" stroke="rgb(255,255,153)">
      <path d="M-130 763.75 L0 763.75 L0 825.75 L-130 825.75 Z" stroke="none" clip-path="url(#clipPath2)"/>
    </g>
    <g text-rendering="geometricPrecision" stroke-miterlimit="1.45" shape-rendering="geometricPrecision" transform="matrix(1,0,0,1,708,-5)" stroke-linecap="butt">
      <path fill="none" d="M-130 763.75 L0 763.75 L0 825.75 L-130 825.75 Z" clip-path="url(#clipPath2)"/>
      <text x="-96.0137" xml:space="preserve" y="799.4639" clip-path="url(#clipPath2)" font-family="sans-serif" stroke="none">Achizomida</text>
    </g>
    <g fill="rgb(255,255,153)" text-rendering="geometricPrecision" shape-rendering="geometricPrecision" transform="matrix(1,0,0,1,708,-5)" stroke="rgb(255,255,153)">
      <path d="M-468 664 L-338 664 L-338 726 L-468 726 Z" stroke="none" clip-path="url(#clipPath2)"/>
    </g>
    <g text-rendering="geometricPrecision" stroke-miterlimit="1.45" shape-rendering="geometricPrecision" transform="matrix(1,0,0,1,708,-5)" stroke-linecap="butt">
      <path fill="none" d="M-468 664 L-338 664 L-338 726 L-468 726 Z" clip-path="url(#clipPath2)"/>
      <text x="-433.0176" xml:space="preserve" y="699.7139" clip-path="url(#clipPath2)" font-family="sans-serif" stroke="none">Scorpiones</text>
    </g>
    <g fill="rgb(255,255,153)" text-rendering="geometricPrecision" shape-rendering="geometricPrecision" transform="matrix(1,0,0,1,708,-5)" stroke="rgb(255,255,153)">
      <path d="M-291 20 L-161 20 L-161 82 L-291 82 Z" stroke="none" clip-path="url(#clipPath2)"/>
    </g>
    <g text-rendering="geometricPrecision" stroke-miterlimit="1.45" shape-rendering="geometricPrecision" transform="matrix(1,0,0,1,708,-5)" stroke-linecap="butt">
      <path fill="none" d="M-291 20 L-161 20 L-161 82 L-291 82 Z" clip-path="url(#clipPath2)"/>
      <text x="-251.0195" xml:space="preserve" y="55.7139" clip-path="url(#clipPath2)" font-family="sans-serif" stroke="none">Solifugae</text>
    </g>
    <g fill="rgb(255,255,153)" text-rendering="geometricPrecision" shape-rendering="geometricPrecision" transform="matrix(1,0,0,1,708,-5)" stroke="rgb(255,255,153)">
      <path d="M-130 671.75 L0 671.75 L0 733.75 L-130 733.75 Z" stroke="none" clip-path="url(#clipPath2)"/>
    </g>
    <g text-rendering="geometricPrecision" stroke-miterlimit="1.45" shape-rendering="geometricPrecision" transform="matrix(1,0,0,1,708,-5)" stroke-linecap="butt">
      <path fill="none" d="M-130 671.75 L0 671.75 L0 733.75 L-130 733.75 Z" clip-path="url(#clipPath2)"/>
      <text x="-99.6875" xml:space="preserve" y="707.4639" clip-path="url(#clipPath2)" font-family="sans-serif" stroke="none">Thelyphorida</text>
    </g>
    <g fill="rgb(255,255,153)" text-rendering="geometricPrecision" shape-rendering="geometricPrecision" transform="matrix(1,0,0,1,708,-5)" stroke="rgb(255,255,153)">
      <path d="M-468 480 L-338 480 L-338 542 L-468 542 Z" stroke="none" clip-path="url(#clipPath2)"/>
    </g>
    <g text-rendering="geometricPrecision" stroke-miterlimit="1.45" shape-rendering="geometricPrecision" transform="matrix(1,0,0,1,708,-5)" stroke-linecap="butt">
      <path fill="none" d="M-468 480 L-338 480 L-338 542 L-468 542 Z" clip-path="url(#clipPath2)"/>
      <text x="-432.3525" xml:space="preserve" y="515.7139" clip-path="url(#clipPath2)" font-family="sans-serif" stroke="none">Coleoptera</text>
    </g>
    <g fill="rgb(255,255,153)" text-rendering="geometricPrecision" shape-rendering="geometricPrecision" transform="matrix(1,0,0,1,708,-5)" stroke="rgb(255,255,153)">
      <path d="M-468 296 L-338 296 L-338 358 L-468 358 Z" stroke="none" clip-path="url(#clipPath2)"/>
    </g>
    <g text-rendering="geometricPrecision" stroke-miterlimit="1.45" shape-rendering="geometricPrecision" transform="matrix(1,0,0,1,708,-5)" stroke-linecap="butt">
      <path fill="none" d="M-468 296 L-338 296 L-338 358 L-468 358 Z" clip-path="url(#clipPath2)"/>
      <text x="-452.3594" xml:space="preserve" y="331.7139" clip-path="url(#clipPath2)" font-family="sans-serif" stroke="none">Demais Hexapoda</text>
    </g>
    <g fill="rgb(255,255,153)" text-rendering="geometricPrecision" shape-rendering="geometricPrecision" transform="matrix(1,0,0,1,708,-5)" stroke="rgb(255,255,153)">
      <path d="M-693 296 L-563 296 L-563 358 L-693 358 Z" stroke="none" clip-path="url(#clipPath2)"/>
    </g>
    <g text-rendering="geometricPrecision" stroke-miterlimit="1.45" shape-rendering="geometricPrecision" transform="matrix(1,0,0,1,708,-5)" stroke-linecap="butt">
      <path fill="none" d="M-693 296 L-563 296 L-563 358 L-693 358 Z" clip-path="url(#clipPath2)"/>
      <text x="-647.3418" xml:space="preserve" y="331.7139" clip-path="url(#clipPath2)" font-family="sans-serif" stroke="none">Diptera</text>
    </g>
    <g fill="rgb(255,255,153)" text-rendering="geometricPrecision" shape-rendering="geometricPrecision" transform="matrix(1,0,0,1,708,-5)" stroke="rgb(255,255,153)">
      <path d="M-291 388 L-161 388 L-161 450 L-291 450 Z" stroke="none" clip-path="url(#clipPath2)"/>
    </g>
    <g text-rendering="geometricPrecision" stroke-miterlimit="1.45" shape-rendering="geometricPrecision" transform="matrix(1,0,0,1,708,-5)" stroke-linecap="butt">
      <path fill="none" d="M-291 388 L-161 388 L-161 450 L-291 450 Z" clip-path="url(#clipPath2)"/>
      <text x="-262.0176" xml:space="preserve" y="423.7139" clip-path="url(#clipPath2)" font-family="sans-serif" stroke="none">Hymenoptera</text>
    </g>
    <g fill="rgb(255,255,153)" text-rendering="geometricPrecision" shape-rendering="geometricPrecision" transform="matrix(1,0,0,1,708,-5)" stroke="rgb(255,255,153)">
      <path d="M-693 388 L-563 388 L-563 450 L-693 450 Z" stroke="none" clip-path="url(#clipPath2)"/>
    </g>
    <g text-rendering="geometricPrecision" stroke-miterlimit="1.45" shape-rendering="geometricPrecision" transform="matrix(1,0,0,1,708,-5)" stroke-linecap="butt">
      <path fill="none" d="M-693 388 L-563 388 L-563 450 L-693 450 Z" clip-path="url(#clipPath2)"/>
      <text x="-659.6934" xml:space="preserve" y="423.7139" clip-path="url(#clipPath2)" font-family="sans-serif" stroke="none">Lepidoptera</text>
    </g>
    <g fill="rgb(204,255,204)" text-rendering="geometricPrecision" shape-rendering="geometricPrecision" transform="matrix(1,0,0,1,708,-5)" stroke="rgb(204,255,204)">
      <path d="M-468 1773.1666 L-338 1773.1666 L-338 1835.1666 L-468 1835.1666 Z" stroke="none" clip-path="url(#clipPath2)"/>
    </g>
    <g text-rendering="geometricPrecision" stroke-miterlimit="1.45" shape-rendering="geometricPrecision" transform="matrix(1,0,0,1,708,-5)" stroke-linecap="butt">
      <path fill="none" d="M-468 1773.1666 L-338 1773.1666 L-338 1835.1666 L-468 1835.1666 Z" clip-path="url(#clipPath2)"/>
      <text x="-432.0156" xml:space="preserve" y="1808.8805" clip-path="url(#clipPath2)" font-family="sans-serif" stroke="none">Ornitologia</text>
    </g>
    <g fill="rgb(255,255,153)" text-rendering="geometricPrecision" shape-rendering="geometricPrecision" transform="matrix(1,0,0,1,708,-5)" stroke="rgb(255,255,153)">
      <path d="M-468 1865.1666 L-338 1865.1666 L-338 1927.1666 L-468 1927.1666 Z" stroke="none" clip-path="url(#clipPath2)"/>
    </g>
    <g text-rendering="geometricPrecision" stroke-miterlimit="1.45" shape-rendering="geometricPrecision" transform="matrix(1,0,0,1,708,-5)" stroke-linecap="butt">
      <path fill="none" d="M-468 1865.1666 L-338 1865.1666 L-338 1927.1666 L-468 1927.1666 Z" clip-path="url(#clipPath2)"/>
      <text x="-431.3477" xml:space="preserve" y="1900.8805" clip-path="url(#clipPath2)" font-family="sans-serif" stroke="none">Anatômica</text>
    </g>
    <g fill="rgb(255,255,153)" text-rendering="geometricPrecision" shape-rendering="geometricPrecision" transform="matrix(1,0,0,1,708,-5)" stroke="rgb(255,255,153)">
      <path d="M-468 1681.1666 L-338 1681.1666 L-338 1743.1666 L-468 1743.1666 Z" stroke="none" clip-path="url(#clipPath2)"/>
    </g>
    <g text-rendering="geometricPrecision" stroke-miterlimit="1.45" shape-rendering="geometricPrecision" transform="matrix(1,0,0,1,708,-5)" stroke-linecap="butt">
      <path fill="none" d="M-468 1681.1666 L-338 1681.1666 L-338 1743.1666 L-468 1743.1666 Z" clip-path="url(#clipPath2)"/>
      <text x="-421.6768" xml:space="preserve" y="1716.8805" clip-path="url(#clipPath2)" font-family="sans-serif" stroke="none">Ninhos</text>
    </g>
    <g fill="rgb(255,255,153)" text-rendering="geometricPrecision" shape-rendering="geometricPrecision" transform="matrix(1,0,0,1,708,-5)" stroke="rgb(255,255,153)">
      <path d="M-693 1773.1666 L-563 1773.1666 L-563 1835.1666 L-693 1835.1666 Z" stroke="none" clip-path="url(#clipPath2)"/>
    </g>
    <g text-rendering="geometricPrecision" stroke-miterlimit="1.45" shape-rendering="geometricPrecision" transform="matrix(1,0,0,1,708,-5)" stroke-linecap="butt">
      <path fill="none" d="M-693 1773.1666 L-563 1773.1666 L-563 1835.1666 L-693 1835.1666 Z" clip-path="url(#clipPath2)"/>
      <text x="-659.6846" xml:space="preserve" y="1808.8805" clip-path="url(#clipPath2)" font-family="sans-serif" stroke="none">Osteológica</text>
    </g>
    <g fill="rgb(255,255,153)" text-rendering="geometricPrecision" shape-rendering="geometricPrecision" transform="matrix(1,0,0,1,708,-5)" stroke="rgb(255,255,153)">
      <path d="M-291 1773.1666 L-161 1773.1666 L-161 1835.1666 L-291 1835.1666 Z" stroke="none" clip-path="url(#clipPath2)"/>
    </g>
    <g text-rendering="geometricPrecision" stroke-miterlimit="1.45" shape-rendering="geometricPrecision" transform="matrix(1,0,0,1,708,-5)" stroke-linecap="butt">
      <path fill="none" d="M-291 1773.1666 L-161 1773.1666 L-161 1835.1666 L-291 1835.1666 Z" clip-path="url(#clipPath2)"/>
      <text x="-240.0039" xml:space="preserve" y="1808.8805" clip-path="url(#clipPath2)" font-family="sans-serif" stroke="none">Ovos</text>
    </g>
    <g fill="rgb(255,255,153)" text-rendering="geometricPrecision" shape-rendering="geometricPrecision" transform="matrix(1,0,0,1,708,-5)" stroke="rgb(255,255,153)">
      <path d="M-693 1865.1666 L-563 1865.1666 L-563 1927.1666 L-693 1927.1666 Z" stroke="none" clip-path="url(#clipPath2)"/>
    </g>
    <g text-rendering="geometricPrecision" stroke-miterlimit="1.45" shape-rendering="geometricPrecision" transform="matrix(1,0,0,1,708,-5)" stroke-linecap="butt">
      <path fill="none" d="M-693 1865.1666 L-563 1865.1666 L-563 1927.1666 L-693 1927.1666 Z" clip-path="url(#clipPath2)"/>
      <text x="-666.6924" xml:space="preserve" y="1900.8805" clip-path="url(#clipPath2)" font-family="sans-serif" stroke="none">Penas e Peles</text>
    </g>
    <g fill="rgb(255,255,153)" text-rendering="geometricPrecision" shape-rendering="geometricPrecision" transform="matrix(1,0,0,1,708,-5)" stroke="rgb(255,255,153)">
      <path d="M-468 1308 L-338 1308 L-338 1370 L-468 1370 Z" stroke="none" clip-path="url(#clipPath2)"/>
    </g>
    <g text-rendering="geometricPrecision" stroke-miterlimit="1.45" shape-rendering="geometricPrecision" transform="matrix(1,0,0,1,708,-5)" stroke-linecap="butt">
      <path fill="none" d="M-468 1308 L-338 1308 L-338 1370 L-468 1370 Z" clip-path="url(#clipPath2)"/>
      <text x="-430.0205" xml:space="preserve" y="1343.7139" clip-path="url(#clipPath2)" font-family="sans-serif" stroke="none">Chilopoda</text>
    </g>
    <g fill="rgb(255,255,153)" text-rendering="geometricPrecision" shape-rendering="geometricPrecision" transform="matrix(1,0,0,1,708,-5)" stroke="rgb(255,255,153)">
      <path d="M-468 1124 L-338 1124 L-338 1186 L-468 1186 Z" stroke="none" clip-path="url(#clipPath2)"/>
    </g>
    <g text-rendering="geometricPrecision" stroke-miterlimit="1.45" shape-rendering="geometricPrecision" transform="matrix(1,0,0,1,708,-5)" stroke-linecap="butt">
      <path fill="none" d="M-468 1124 L-338 1124 L-338 1186 L-468 1186 Z" clip-path="url(#clipPath2)"/>
      <text x="-430.0205" xml:space="preserve" y="1159.7139" clip-path="url(#clipPath2)" font-family="sans-serif" stroke="none">Diplopoda</text>
    </g>
    <g text-rendering="geometricPrecision" stroke-miterlimit="1.45" shape-rendering="geometricPrecision" transform="matrix(1,0,0,1,708,-5)" stroke-linecap="butt">
      <path fill="none" d="M-468.0308 986.5 L-499.5 986.5 L-499.5 1497.1666 L-468.0308 1497.1666" clip-path="url(#clipPath2)"/>
    </g>
    <g text-rendering="geometricPrecision" stroke-miterlimit="1.45" shape-rendering="geometricPrecision" transform="matrix(1,0,0,1,708,-5)" stroke-linecap="butt">
      <path fill="none" d="M-468.0308 955.5 L-499.5 955.5 L-499.5 163.6667 L-468.0308 163.6667" clip-path="url(#clipPath2)"/>
      <path fill="none" d="M-338 971 L-306.5 971 L-306.5 726 L-291.0303 726" clip-path="url(#clipPath2)"/>
      <path fill="none" d="M-403 1002 L-403 1031.9707" clip-path="url(#clipPath2)"/>
      <path fill="none" d="M-468.0303 945.1667 L-483.5 945.1667 L-483.5 439.6667 L-468.0303 439.6667" clip-path="url(#clipPath2)"/>
      <path fill="none" d="M-468.0303 996.8333 L-483.5 996.8333 L-483.5 1247 L-468.0303 1247" clip-path="url(#clipPath2)"/>
      <path fill="none" d="M-403 939.9707 L-403 910" clip-path="url(#clipPath2)"/>
      <path fill="none" d="M-468.0464 965.8333 L-563 965.8333" clip-path="url(#clipPath2)"/>
      <path fill="none" d="M-403 1554 L-403 1583.9707" clip-path="url(#clipPath2)"/>
      <path fill="none" d="M-403 1491.9707 L-403 1462" clip-path="url(#clipPath2)"/>
      <path fill="none" d="M-468.031 1507.5 L-531.5 1507.5 L-531.5 1344.1666 L-563 1344.1666" clip-path="url(#clipPath2)"/>
      <path fill="none" d="M-338 1498.2 L-322.5 1498.2 L-322.5 1339 L-291.0308 1339" clip-path="url(#clipPath2)"/>
      <path fill="none" d="M-468.031 1548.8334 L-531.5 1548.8334 L-531.5 1712.1666 L-563 1712.1666" clip-path="url(#clipPath2)"/>
      <path fill="none" d="M-338 1547.8 L-322.5 1547.8 L-322.5 1707 L-291.0308 1707" clip-path="url(#clipPath2)"/>
      <path fill="none" d="M-468.0388 1538.5 L-547.5 1538.5 L-547.5 1620.1666 L-563 1620.1666" clip-path="url(#clipPath2)"/>
      <path fill="none" d="M-338 1535.4 L-306.5 1535.4 L-306.5 1615 L-291.0303 1615" clip-path="url(#clipPath2)"/>
      <path fill="none" d="M-468.0464 1528.1666 L-563 1528.1666" clip-path="url(#clipPath2)"/>
      <path fill="none" d="M-338 1523 L-291.0459 1523" clip-path="url(#clipPath2)"/>
      <path fill="none" d="M-468.0388 1517.8334 L-547.5 1517.8334 L-547.5 1436.1666 L-563 1436.1666" clip-path="url(#clipPath2)"/>
      <path fill="none" d="M-291.0303 1431 L-306.5 1431 L-306.5 1510.6 L-338 1510.6" clip-path="url(#clipPath2)"/>
      <path fill="none" d="M-403 174 L-403 203.9707" clip-path="url(#clipPath2)"/>
      <path fill="none" d="M-403 111.9707 L-403 82" clip-path="url(#clipPath2)"/>
      <path fill="none" d="M-468.0464 122.3333 L-563 122.3333" clip-path="url(#clipPath2)"/>
      <path fill="none" d="M-338 143 L-291.0459 143" clip-path="url(#clipPath2)"/>
      <path fill="none" d="M-468.0464 143 L-515.5 143 L-515.5 214.3333 L-563 214.3333" clip-path="url(#clipPath2)"/>
      <path fill="none" d="M-226 733.75 L-226 763.7207" clip-path="url(#clipPath2)"/>
      <path fill="none" d="M-226 671.7207 L-226 641.75" clip-path="url(#clipPath2)"/>
      <path fill="none" d="M-291.0303 679.5 L-306.5 679.5 L-306.5 603 L-338 603" clip-path="url(#clipPath2)"/>
      <path fill="none" d="M-161 682.0833 L-145.5 682.0833 L-145.5 610.75 L-130.0303 610.75" clip-path="url(#clipPath2)"/>
      <path fill="none" d="M-291.0308 710.5 L-322.5 710.5 L-322.5 787 L-338 787" clip-path="url(#clipPath2)"/>
      <path fill="none" d="M-161 723.4167 L-145.5 723.4167 L-145.5 794.75 L-130.0303 794.75" clip-path="url(#clipPath2)"/>
      <path fill="none" d="M-291.0459 695 L-338 695" clip-path="url(#clipPath2)"/>
      <path fill="none" d="M-161 702.75 L-130.0303 702.75" clip-path="url(#clipPath2)"/>
      <path fill="none" d="M-403 450 L-403 479.9707" clip-path="url(#clipPath2)"/>
      <path fill="none" d="M-403 387.9707 L-403 358" clip-path="url(#clipPath2)"/>
      <path fill="none" d="M-468.0464 398.3333 L-515.5 398.3333 L-515.5 327 L-563 327" clip-path="url(#clipPath2)"/>
      <path fill="none" d="M-338 419 L-291.0459 419" clip-path="url(#clipPath2)"/>
      <path fill="none" d="M-468.0464 419 L-563 419" clip-path="url(#clipPath2)"/>
      <path fill="none" d="M-468.0464 976.1667 L-515.5 976.1667 L-515.5 1783.5 L-468.0464 1783.5" clip-path="url(#clipPath2)"/>
      <path fill="none" d="M-403 1835.1666 L-403 1865.1373" clip-path="url(#clipPath2)"/>
      <path fill="none" d="M-403 1773.1373 L-403 1743.1666" clip-path="url(#clipPath2)"/>
      <path fill="none" d="M-468.0464 1804.1666 L-563 1804.1666" clip-path="url(#clipPath2)"/>
      <path fill="none" d="M-338 1804.1666 L-291.0459 1804.1666" clip-path="url(#clipPath2)"/>
      <path fill="none" d="M-468.0303 1824.8334 L-483.5 1824.8334 L-483.5 1896.1666 L-563 1896.1666" clip-path="url(#clipPath2)"/>
      <path fill="none" d="M-403 1278 L-403 1307.9707" clip-path="url(#clipPath2)"/>
      <path fill="none" d="M-403 1215.9707 L-403 1186" clip-path="url(#clipPath2)"/>
    </g>
  </g>
</svg>
