<?xml version="1.0" encoding="UTF-8"?><svg xmlns="http://www.w3.org/2000/svg" xmlns:xlink="http://www.w3.org/1999/xlink" fill-opacity="1" color-rendering="auto" color-interpolation="auto" text-rendering="auto" stroke="black" stroke-linecap="square" width="802" stroke-miterlimit="10" shape-rendering="auto" stroke-opacity="1" fill="black" stroke-dasharray="none" font-weight="normal" stroke-width="1" height="500" font-family="'Dialog'" font-style="normal" stroke-linejoin="miter" font-size="12px" stroke-dashoffset="0" image-rendering="auto">
  <!--Generated by ySVG 2.6-->
  <defs id="genericDefs"/>
  <g>
    <defs id="defs1">
      <clipPath clipPathUnits="userSpaceOnUse" id="clipPath1">
        <path d="M0 0 L802 0 L802 500 L0 500 L0 0 Z"/>
      </clipPath>
      <clipPath clipPathUnits="userSpaceOnUse" id="clipPath2">
        <path d="M186 -21 L587 -21 L587 229 L186 229 L186 -21 Z"/>
      </clipPath>
    </defs>
    <g fill="white" text-rendering="geometricPrecision" shape-rendering="geometricPrecision" transform="scale(2,2) translate(-186,21)" stroke="white">
      <rect x="186" width="401" height="250" y="-21" clip-path="url(#clipPath2)" stroke="none"/>
    </g>
    <g fill="rgb(104,176,227)" text-rendering="geometricPrecision" shape-rendering="geometricPrecision" transform="matrix(2,0,0,2,-372,42)" stroke="rgb(104,176,227)">
      <path d="M194.8889 -12.1616 L194.8889 220.0977 L578.6681 220.0977 L578.6681 -12.1616 ZM195.8889 9.8384 L195.8889 219.0977 L577.6681 219.0977 L577.6681 9.8384 Z" fill-rule="evenodd" clip-path="url(#clipPath2)" stroke="none"/>
    </g>
    <g font-size="16px" stroke-linecap="butt" transform="matrix(2,0,0,2,-372,42)" text-rendering="geometricPrecision" font-family="sans-serif" shape-rendering="geometricPrecision" font-weight="bold" stroke-miterlimit="1.45">
      <text x="196.8889" xml:space="preserve" y="5.9244" clip-path="url(#clipPath2)" stroke="none">Divisão: Zoologia</text>
    </g>
    <g fill="rgb(104,176,227)" text-rendering="geometricPrecision" shape-rendering="geometricPrecision" transform="matrix(2,0,0,2,-372,42)" stroke="rgb(104,176,227)">
      <path d="M209.8889 26.44 L209.8889 205.0977 L563.6681 205.0977 L563.6681 26.44 ZM210.8889 48.44 L210.8889 204.0977 L562.6681 204.0977 L562.6681 48.44 Z" fill-rule="evenodd" clip-path="url(#clipPath2)" stroke="none"/>
    </g>
    <g font-size="16px" stroke-linecap="butt" transform="matrix(2,0,0,2,-372,42)" text-rendering="geometricPrecision" font-family="sans-serif" shape-rendering="geometricPrecision" font-weight="bold" stroke-miterlimit="1.45">
      <text x="211.8889" xml:space="preserve" y="44.5259" clip-path="url(#clipPath2)" stroke="none">Disciplina</text>
    </g>
    <g fill="rgb(60,103,155)" text-rendering="geometricPrecision" shape-rendering="geometricPrecision" transform="matrix(2,0,0,2,-372,42)" stroke="rgb(60,103,155)">
      <path d="M232.4445 134.5489 L332.4445 134.5489 L332.4445 164.5489 L232.4445 164.5489 Z" stroke="none" clip-path="url(#clipPath2)"/>
    </g>
    <g text-rendering="geometricPrecision" stroke-miterlimit="1.45" shape-rendering="geometricPrecision" transform="matrix(2,0,0,2,-372,42)" stroke-linecap="butt">
      <path fill="none" d="M232.4445 134.5489 L332.4445 134.5489 L332.4445 164.5489 L232.4445 164.5489 Z" clip-path="url(#clipPath2)"/>
      <text x="245.756" y="146.9122" clip-path="url(#clipPath2)" fill="white" font-family="sans-serif" stroke="none" xml:space="preserve">Invertebrados</text>
      <text x="244.4171" y="161.6133" clip-path="url(#clipPath2)" fill="white" font-family="sans-serif" stroke="none" xml:space="preserve">não Artropoda</text>
    </g>
    <g fill="rgb(60,103,155)" text-rendering="geometricPrecision" shape-rendering="geometricPrecision" transform="matrix(2,0,0,2,-372,42)" stroke="rgb(60,103,155)">
      <path d="M340.5563 65.0415 L440.5563 65.0415 L440.5563 95.0415 L340.5563 95.0415 Z" stroke="none" clip-path="url(#clipPath2)"/>
    </g>
    <g text-rendering="geometricPrecision" stroke-miterlimit="1.45" shape-rendering="geometricPrecision" transform="matrix(2,0,0,2,-372,42)" stroke-linecap="butt">
      <path fill="none" d="M340.5563 65.0415 L440.5563 65.0415 L440.5563 95.0415 L340.5563 95.0415 Z" clip-path="url(#clipPath2)"/>
      <text x="356.5338" y="84.7554" clip-path="url(#clipPath2)" fill="white" font-family="sans-serif" stroke="none" xml:space="preserve">Herpetologia</text>
    </g>
    <g fill="rgb(60,103,155)" text-rendering="geometricPrecision" shape-rendering="geometricPrecision" transform="matrix(2,0,0,2,-372,42)" stroke="rgb(60,103,155)">
      <path d="M448.6681 65.0415 L548.6681 65.0415 L548.6681 95.0415 L448.6681 95.0415 Z" stroke="none" clip-path="url(#clipPath2)"/>
    </g>
    <g text-rendering="geometricPrecision" stroke-miterlimit="1.45" shape-rendering="geometricPrecision" transform="matrix(2,0,0,2,-372,42)" stroke-linecap="butt">
      <path fill="none" d="M448.6681 65.0415 L548.6681 65.0415 L548.6681 95.0415 L448.6681 95.0415 Z" clip-path="url(#clipPath2)"/>
      <text x="466.9806" y="84.7554" clip-path="url(#clipPath2)" fill="white" font-family="sans-serif" stroke="none" xml:space="preserve">Aracnologia</text>
    </g>
    <g fill="rgb(60,103,155)" text-rendering="geometricPrecision" shape-rendering="geometricPrecision" transform="matrix(2,0,0,2,-372,42)" stroke="rgb(60,103,155)">
      <path d="M448.6681 99.7952 L548.6681 99.7952 L548.6681 129.7952 L448.6681 129.7952 Z" stroke="none" clip-path="url(#clipPath2)"/>
    </g>
    <g text-rendering="geometricPrecision" stroke-miterlimit="1.45" shape-rendering="geometricPrecision" transform="matrix(2,0,0,2,-372,42)" stroke-linecap="butt">
      <path fill="none" d="M448.6681 99.7952 L548.6681 99.7952 L548.6681 129.7952 L448.6681 129.7952 Z" clip-path="url(#clipPath2)"/>
      <text x="467.9855" y="119.5091" clip-path="url(#clipPath2)" fill="white" font-family="sans-serif" stroke="none" xml:space="preserve">Crustaceae</text>
    </g>
    <g fill="rgb(60,103,155)" text-rendering="geometricPrecision" shape-rendering="geometricPrecision" transform="matrix(2,0,0,2,-372,42)" stroke="rgb(60,103,155)">
      <path d="M232.4445 99.7952 L332.4445 99.7952 L332.4445 129.7952 L232.4445 129.7952 Z" stroke="none" clip-path="url(#clipPath2)"/>
    </g>
    <g text-rendering="geometricPrecision" stroke-miterlimit="1.45" shape-rendering="geometricPrecision" transform="matrix(2,0,0,2,-372,42)" stroke-linecap="butt">
      <path fill="none" d="M232.4445 99.7952 L332.4445 99.7952 L332.4445 129.7952 L232.4445 129.7952 Z" clip-path="url(#clipPath2)"/>
      <text x="249.09" y="119.5091" clip-path="url(#clipPath2)" fill="white" font-family="sans-serif" stroke="none" xml:space="preserve">Entomologia</text>
    </g>
    <g fill="rgb(60,103,155)" text-rendering="geometricPrecision" shape-rendering="geometricPrecision" transform="matrix(2,0,0,2,-372,42)" stroke="rgb(60,103,155)">
      <path d="M340.5563 134.5489 L440.5563 134.5489 L440.5563 164.5489 L340.5563 164.5489 Z" stroke="none" clip-path="url(#clipPath2)"/>
    </g>
    <g text-rendering="geometricPrecision" stroke-miterlimit="1.45" shape-rendering="geometricPrecision" transform="matrix(2,0,0,2,-372,42)" stroke-linecap="butt">
      <path fill="none" d="M340.5563 134.5489 L440.5563 134.5489 L440.5563 164.5489 L340.5563 164.5489 Z" clip-path="url(#clipPath2)"/>
      <text x="362.5426" y="154.2627" clip-path="url(#clipPath2)" fill="white" font-family="sans-serif" stroke="none" xml:space="preserve">Myriapoda</text>
    </g>
    <g fill="rgb(60,103,155)" text-rendering="geometricPrecision" shape-rendering="geometricPrecision" transform="matrix(2,0,0,2,-372,42)" stroke="rgb(60,103,155)">
      <path d="M340.5563 99.7952 L440.5563 99.7952 L440.5563 129.7952 L340.5563 129.7952 Z" stroke="none" clip-path="url(#clipPath2)"/>
    </g>
    <g text-rendering="geometricPrecision" stroke-miterlimit="1.45" shape-rendering="geometricPrecision" transform="matrix(2,0,0,2,-372,42)" stroke-linecap="butt">
      <path fill="none" d="M340.5563 99.7952 L440.5563 99.7952 L440.5563 129.7952 L340.5563 129.7952 Z" clip-path="url(#clipPath2)"/>
      <text x="351.8668" y="119.5091" clip-path="url(#clipPath2)" fill="white" font-family="sans-serif" stroke="none" xml:space="preserve">Mastozoologia</text>
    </g>
    <g fill="rgb(60,103,155)" text-rendering="geometricPrecision" shape-rendering="geometricPrecision" transform="matrix(2,0,0,2,-372,42)" stroke="rgb(60,103,155)">
      <path d="M448.6681 134.5489 L548.6681 134.5489 L548.6681 164.5489 L448.6681 164.5489 Z" stroke="none" clip-path="url(#clipPath2)"/>
    </g>
    <g text-rendering="geometricPrecision" stroke-miterlimit="1.45" shape-rendering="geometricPrecision" transform="matrix(2,0,0,2,-372,42)" stroke-linecap="butt">
      <path fill="none" d="M448.6681 134.5489 L548.6681 134.5489 L548.6681 164.5489 L448.6681 164.5489 Z" clip-path="url(#clipPath2)"/>
      <text x="469.6525" y="154.2627" clip-path="url(#clipPath2)" fill="white" font-family="sans-serif" stroke="none" xml:space="preserve">Ornitologia</text>
    </g>
    <g fill="rgb(60,103,155)" text-rendering="geometricPrecision" shape-rendering="geometricPrecision" transform="matrix(2,0,0,2,-372,42)" stroke="rgb(60,103,155)">
      <path d="M232.4445 65.0415 L332.4445 65.0415 L332.4445 95.0415 L232.4445 95.0415 Z" stroke="none" clip-path="url(#clipPath2)"/>
    </g>
    <g text-rendering="geometricPrecision" stroke-miterlimit="1.45" shape-rendering="geometricPrecision" transform="matrix(2,0,0,2,-372,42)" stroke-linecap="butt">
      <path fill="none" d="M232.4445 65.0415 L332.4445 65.0415 L332.4445 95.0415 L232.4445 95.0415 Z" clip-path="url(#clipPath2)"/>
      <text x="258.7638" y="84.7554" clip-path="url(#clipPath2)" fill="white" font-family="sans-serif" stroke="none" xml:space="preserve">Ictiologia</text>
    </g>
  </g>
</svg>
